<mxfile host="app.diagrams.net" modified="2024-05-11T05:55:22.857Z" agent="Mozilla/5.0 (Windows NT 10.0; Win64; x64) AppleWebKit/537.36 (KHTML, like Gecko) Chrome/124.0.0.0 Safari/537.36 Edg/124.0.0.0" version="24.4.0" etag="37lOAduoDlT6mxmEMqUC" type="github">
  <diagram name="Page-1" id="69oDfZtNUQ7lK99X2OdC">
    <mxGraphModel>
      <root>
        <mxCell id="0" />
        <mxCell id="1" parent="0" />
      </root>
    </mxGraphModel>
  </diagram>
</mxfile>
